<?xml version="1.0" encoding="UTF-8" standalone="no"?>
<!DOCTYPE svg PUBLIC "-//W3C//DTD SVG 1.1//EN"
 "http://www.w3.org/Graphics/SVG/1.1/DTD/svg11.dtd">
<!-- Generated by graphviz version 2.40.1 (20161225.0304)
 -->
<!-- Title: dependencies Pages: 1 -->
<svg width="994pt" height="284pt"
 viewBox="0.00 0.00 994.00 284.00" xmlns="http://www.w3.org/2000/svg" xmlns:xlink="http://www.w3.org/1999/xlink">
<g id="graph0" class="graph" transform="scale(1 1) rotate(0) translate(4 280)">
<title>dependencies</title>
<polygon fill="#ffffff" stroke="transparent" points="-4,4 -4,-280 990,-280 990,4 -4,4"/>
<text text-anchor="start" x="472.0091" y="-42.4" font-family="sans-serif" font-weight="bold" font-size="14.00" fill="#000000">Legend</text>
<polygon fill="#ffffb3" stroke="transparent" points="259,-10 259,-30 279,-30 279,-10 259,-10"/>
<text text-anchor="start" x="282.629" y="-15.4" font-family="sans-serif" font-size="14.00" fill="#000000"> &#160;Declarations</text>
<polygon fill="#8dd3c7" stroke="transparent" points="372,-10 372,-30 392,-30 392,-10 372,-10"/>
<text text-anchor="start" x="395.7251" y="-15.4" font-family="sans-serif" font-size="14.00" fill="#000000"> &#160;Module</text>
<polygon fill="#80b1d3" stroke="transparent" points="458,-10 458,-30 478,-30 478,-10 458,-10"/>
<text text-anchor="start" x="481.7812" y="-15.4" font-family="sans-serif" font-size="14.00" fill="#000000"> &#160;Bootstrap</text>
<polygon fill="#fdb462" stroke="transparent" points="555,-10 555,-30 575,-30 575,-10 555,-10"/>
<text text-anchor="start" x="578.6732" y="-15.4" font-family="sans-serif" font-size="14.00" fill="#000000"> &#160;Providers</text>
<polygon fill="#fb8072" stroke="transparent" points="651,-10 651,-30 671,-30 671,-10 651,-10"/>
<text text-anchor="start" x="674.7258" y="-15.4" font-family="sans-serif" font-size="14.00" fill="#000000"> &#160;Exports</text>
<g id="clust1" class="cluster">
<title>cluster_AppModule</title>
<polygon fill="none" stroke="#000000" stroke-dasharray="1,5" points="8,-70 8,-268 978,-268 978,-70 8,-70"/>
</g>
<g id="clust2" class="cluster">
<title>cluster_AppModule_declarations</title>
<polygon fill="none" stroke="#000000" points="407,-78 407,-130 970,-130 970,-78 407,-78"/>
</g>
<g id="clust7" class="cluster">
<title>cluster_AppModule_imports</title>
<polygon fill="none" stroke="#000000" points="16,-78 16,-130 399,-130 399,-78 16,-78"/>
</g>
<g id="clust9" class="cluster">
<title>cluster_AppModule_bootstrap</title>
<polygon fill="none" stroke="#000000" points="410,-208 410,-260 534,-260 534,-208 410,-208"/>
</g>
<!-- AppComponent -->
<g id="node1" class="node">
<title>AppComponent</title>
<polygon fill="#ffffb3" stroke="#000000" points="961.9399,-122 856.0601,-122 856.0601,-86 961.9399,-86 961.9399,-122"/>
<text text-anchor="middle" x="909" y="-99.8" font-family="Times,serif" font-size="14.00" fill="#000000">AppComponent</text>
</g>
<!-- AppModule -->
<g id="node5" class="node">
<title>AppModule</title>
<polygon fill="#8dd3c7" stroke="#000000" points="513.6571,-187 510.6571,-191 489.6571,-191 486.6571,-187 430.3429,-187 430.3429,-151 513.6571,-151 513.6571,-187"/>
<text text-anchor="middle" x="472" y="-164.8" font-family="Times,serif" font-size="14.00" fill="#000000">AppModule</text>
</g>
<!-- AppComponent&#45;&gt;AppModule -->
<g id="edge1" class="edge">
<title>AppComponent&#45;&gt;AppModule</title>
<path fill="none" stroke="#000000" d="M909,-122.2921C909,-144.2057 909,-178 909,-178 909,-178 523.9014,-178 523.9014,-178"/>
<polygon fill="#000000" stroke="#000000" points="523.9014,-174.5001 513.9014,-178 523.9014,-181.5001 523.9014,-174.5001"/>
</g>
<!-- DrawingComponent -->
<g id="node2" class="node">
<title>DrawingComponent</title>
<polygon fill="#ffffb3" stroke="#000000" points="838.3118,-122 707.6882,-122 707.6882,-86 838.3118,-86 838.3118,-122"/>
<text text-anchor="middle" x="773" y="-99.8" font-family="Times,serif" font-size="14.00" fill="#000000">DrawingComponent</text>
</g>
<!-- DrawingComponent&#45;&gt;AppModule -->
<g id="edge2" class="edge">
<title>DrawingComponent&#45;&gt;AppModule</title>
<path fill="none" stroke="#000000" d="M773,-122.1061C773,-141.3391 773,-169 773,-169 773,-169 523.8528,-169 523.8528,-169"/>
<polygon fill="#000000" stroke="#000000" points="523.8528,-165.5001 513.8528,-169 523.8527,-172.5001 523.8528,-165.5001"/>
</g>
<!-- SimulationComponent -->
<g id="node3" class="node">
<title>SimulationComponent</title>
<polygon fill="#ffffb3" stroke="#000000" points="689.2828,-122 546.7172,-122 546.7172,-86 689.2828,-86 689.2828,-122"/>
<text text-anchor="middle" x="618" y="-99.8" font-family="Times,serif" font-size="14.00" fill="#000000">SimulationComponent</text>
</g>
<!-- SimulationComponent&#45;&gt;AppModule -->
<g id="edge3" class="edge">
<title>SimulationComponent&#45;&gt;AppModule</title>
<path fill="none" stroke="#000000" d="M618,-122.027C618,-138.3976 618,-160 618,-160 618,-160 523.8377,-160 523.8377,-160"/>
<polygon fill="#000000" stroke="#000000" points="523.8378,-156.5001 513.8377,-160 523.8377,-163.5001 523.8378,-156.5001"/>
</g>
<!-- SetupComponent -->
<g id="node4" class="node">
<title>SetupComponent</title>
<polygon fill="#ffffb3" stroke="#000000" points="528.7204,-122 415.2796,-122 415.2796,-86 528.7204,-86 528.7204,-122"/>
<text text-anchor="middle" x="472" y="-99.8" font-family="Times,serif" font-size="14.00" fill="#000000">SetupComponent</text>
</g>
<!-- SetupComponent&#45;&gt;AppModule -->
<g id="edge4" class="edge">
<title>SetupComponent&#45;&gt;AppModule</title>
<path fill="none" stroke="#000000" d="M472,-122.1061C472,-122.1061 472,-140.991 472,-140.991"/>
<polygon fill="#000000" stroke="#000000" points="468.5001,-140.9909 472,-150.991 475.5001,-140.991 468.5001,-140.9909"/>
</g>
<!-- AppComponent  -->
<g id="node9" class="node">
<title>AppComponent </title>
<polygon fill="#80b1d3" stroke="#000000" points="526.439,-252 417.561,-252 417.561,-216 526.439,-216 526.439,-252"/>
<text text-anchor="middle" x="472" y="-229.8" font-family="Times,serif" font-size="14.00" fill="#000000">AppComponent </text>
</g>
<!-- AppModule&#45;&gt;AppComponent  -->
<g id="edge8" class="edge">
<title>AppModule&#45;&gt;AppComponent </title>
<path fill="none" stroke="#000000" stroke-dasharray="1,5" d="M472,-187.1061C472,-187.1061 472,-205.991 472,-205.991"/>
<polygon fill="#000000" stroke="#000000" points="468.5001,-205.9909 472,-215.991 475.5001,-205.991 468.5001,-205.9909"/>
</g>
<!-- BrowserModule -->
<g id="node6" class="node">
<title>BrowserModule</title>
<polygon fill="#8dd3c7" stroke="#000000" points="391.4734,-122 388.4734,-126 367.4734,-126 364.4734,-122 284.5266,-122 284.5266,-86 391.4734,-86 391.4734,-122"/>
<text text-anchor="middle" x="338" y="-99.8" font-family="Times,serif" font-size="14.00" fill="#000000">BrowserModule</text>
</g>
<!-- BrowserModule&#45;&gt;AppModule -->
<g id="edge5" class="edge">
<title>BrowserModule&#45;&gt;AppModule</title>
<path fill="none" stroke="#000000" d="M338,-122.027C338,-138.3976 338,-160 338,-160 338,-160 420.3361,-160 420.3361,-160"/>
<polygon fill="#000000" stroke="#000000" points="420.3361,-163.5001 430.3361,-160 420.3361,-156.5001 420.3361,-163.5001"/>
</g>
<!-- AppRoutingModule -->
<g id="node7" class="node">
<title>AppRoutingModule</title>
<polygon fill="#8dd3c7" stroke="#000000" points="266.2744,-122 263.2744,-126 242.2744,-126 239.2744,-122 137.7256,-122 137.7256,-86 266.2744,-86 266.2744,-122"/>
<text text-anchor="middle" x="202" y="-99.8" font-family="Times,serif" font-size="14.00" fill="#000000">AppRoutingModule</text>
</g>
<!-- AppRoutingModule&#45;&gt;AppModule -->
<g id="edge6" class="edge">
<title>AppRoutingModule&#45;&gt;AppModule</title>
<path fill="none" stroke="#000000" d="M202,-122.1061C202,-141.3391 202,-169 202,-169 202,-169 420.1087,-169 420.1087,-169"/>
<polygon fill="#000000" stroke="#000000" points="420.1088,-172.5001 430.1087,-169 420.1087,-165.5001 420.1088,-172.5001"/>
</g>
<!-- FormsModule -->
<g id="node8" class="node">
<title>FormsModule</title>
<polygon fill="#8dd3c7" stroke="#000000" points="119.8288,-122 116.8288,-126 95.8288,-126 92.8288,-122 24.1712,-122 24.1712,-86 119.8288,-86 119.8288,-122"/>
<text text-anchor="middle" x="72" y="-99.8" font-family="Times,serif" font-size="14.00" fill="#000000">FormsModule</text>
</g>
<!-- FormsModule&#45;&gt;AppModule -->
<g id="edge7" class="edge">
<title>FormsModule&#45;&gt;AppModule</title>
<path fill="none" stroke="#000000" d="M72,-122.2921C72,-144.2057 72,-178 72,-178 72,-178 420.325,-178 420.325,-178"/>
<polygon fill="#000000" stroke="#000000" points="420.325,-181.5001 430.325,-178 420.3249,-174.5001 420.325,-181.5001"/>
</g>
</g>
</svg>
