<?xml version="1.0" encoding="UTF-8" standalone="no"?>
<!DOCTYPE svg PUBLIC "-//W3C//DTD SVG 1.1//EN"
 "http://www.w3.org/Graphics/SVG/1.1/DTD/svg11.dtd">
<!-- Generated by graphviz version 2.40.1 (20161225.0304)
 -->
<!-- Title: dependencies Pages: 1 -->
<svg width="1338pt" height="290pt"
 viewBox="0.00 0.00 1338.00 290.00" xmlns="http://www.w3.org/2000/svg" xmlns:xlink="http://www.w3.org/1999/xlink">
<g id="graph0" class="graph" transform="scale(1 1) rotate(0) translate(4 286)">
<title>dependencies</title>
<polygon fill="#ffffff" stroke="transparent" points="-4,4 -4,-286 1334,-286 1334,4 -4,4"/>
<text text-anchor="start" x="644.0091" y="-42.4" font-family="sans-serif" font-weight="bold" font-size="14.00" fill="#000000">Legend</text>
<polygon fill="#ffffb3" stroke="transparent" points="431,-10 431,-30 451,-30 451,-10 431,-10"/>
<text text-anchor="start" x="454.629" y="-15.4" font-family="sans-serif" font-size="14.00" fill="#000000"> &#160;Declarations</text>
<polygon fill="#8dd3c7" stroke="transparent" points="544,-10 544,-30 564,-30 564,-10 544,-10"/>
<text text-anchor="start" x="567.7251" y="-15.4" font-family="sans-serif" font-size="14.00" fill="#000000"> &#160;Module</text>
<polygon fill="#80b1d3" stroke="transparent" points="630,-10 630,-30 650,-30 650,-10 630,-10"/>
<text text-anchor="start" x="653.7812" y="-15.4" font-family="sans-serif" font-size="14.00" fill="#000000"> &#160;Bootstrap</text>
<polygon fill="#fdb462" stroke="transparent" points="727,-10 727,-30 747,-30 747,-10 727,-10"/>
<text text-anchor="start" x="750.6732" y="-15.4" font-family="sans-serif" font-size="14.00" fill="#000000"> &#160;Providers</text>
<polygon fill="#fb8072" stroke="transparent" points="823,-10 823,-30 843,-30 843,-10 823,-10"/>
<text text-anchor="start" x="846.7258" y="-15.4" font-family="sans-serif" font-size="14.00" fill="#000000"> &#160;Exports</text>
<g id="clust1" class="cluster">
<title>cluster_AppModule</title>
<polygon fill="none" stroke="#000000" stroke-dasharray="1,5" points="8,-70 8,-274 978,-274 978,-70 8,-70"/>
</g>
<g id="clust2" class="cluster">
<title>cluster_AppModule_declarations</title>
<polygon fill="none" stroke="#000000" points="16,-78 16,-130 579,-130 579,-78 16,-78"/>
</g>
<g id="clust7" class="cluster">
<title>cluster_AppModule_imports</title>
<polygon fill="none" stroke="#000000" points="587,-78 587,-130 970,-130 970,-78 587,-78"/>
</g>
<g id="clust9" class="cluster">
<title>cluster_AppModule_bootstrap</title>
<polygon fill="none" stroke="#000000" points="456,-214 456,-266 580,-266 580,-214 456,-214"/>
</g>
<g id="clust11" class="cluster">
<title>cluster_AppRoutingModule</title>
<polygon fill="none" stroke="#000000" stroke-dasharray="1,5" points="986,-138 986,-206 1322,-206 1322,-138 986,-138"/>
</g>
<g id="clust13" class="cluster">
<title>cluster_AppRoutingModule_imports</title>
<polygon fill="none" stroke="#000000" points="1120,-146 1120,-198 1314,-198 1314,-146 1120,-146"/>
</g>
<g id="clust14" class="cluster">
<title>cluster_AppRoutingModule_exports</title>
<polygon fill="none" stroke="#000000" points="994,-146 994,-198 1112,-198 1112,-146 994,-146"/>
</g>
<!-- AppComponent -->
<g id="node1" class="node">
<title>AppComponent</title>
<polygon fill="#ffffb3" stroke="#000000" points="570.9399,-122 465.0601,-122 465.0601,-86 570.9399,-86 570.9399,-122"/>
<text text-anchor="middle" x="518" y="-99.8" font-family="Times,serif" font-size="14.00" fill="#000000">AppComponent</text>
</g>
<!-- AppModule -->
<g id="node5" class="node">
<title>AppModule</title>
<polygon fill="#8dd3c7" stroke="#000000" points="559.6571,-190 556.6571,-194 535.6571,-194 532.6571,-190 476.3429,-190 476.3429,-154 559.6571,-154 559.6571,-190"/>
<text text-anchor="middle" x="518" y="-167.8" font-family="Times,serif" font-size="14.00" fill="#000000">AppModule</text>
</g>
<!-- AppComponent&#45;&gt;AppModule -->
<g id="edge1" class="edge">
<title>AppComponent&#45;&gt;AppModule</title>
<path fill="none" stroke="#000000" d="M518,-122.2228C518,-122.2228 518,-143.7269 518,-143.7269"/>
<polygon fill="#000000" stroke="#000000" points="514.5001,-143.7269 518,-153.7269 521.5001,-143.727 514.5001,-143.7269"/>
</g>
<!-- DrawingComponent -->
<g id="node2" class="node">
<title>DrawingComponent</title>
<polygon fill="#ffffb3" stroke="#000000" points="447.3118,-122 316.6882,-122 316.6882,-86 447.3118,-86 447.3118,-122"/>
<text text-anchor="middle" x="382" y="-99.8" font-family="Times,serif" font-size="14.00" fill="#000000">DrawingComponent</text>
</g>
<!-- DrawingComponent&#45;&gt;AppModule -->
<g id="edge2" class="edge">
<title>DrawingComponent&#45;&gt;AppModule</title>
<path fill="none" stroke="#000000" d="M382,-122.0225C382,-139.3734 382,-163 382,-163 382,-163 466.0858,-163 466.0858,-163"/>
<polygon fill="#000000" stroke="#000000" points="466.0858,-166.5001 476.0858,-163 466.0858,-159.5001 466.0858,-166.5001"/>
</g>
<!-- SimulationComponent -->
<g id="node3" class="node">
<title>SimulationComponent</title>
<polygon fill="#ffffb3" stroke="#000000" points="298.2828,-122 155.7172,-122 155.7172,-86 298.2828,-86 298.2828,-122"/>
<text text-anchor="middle" x="227" y="-99.8" font-family="Times,serif" font-size="14.00" fill="#000000">SimulationComponent</text>
</g>
<!-- SimulationComponent&#45;&gt;AppModule -->
<g id="edge3" class="edge">
<title>SimulationComponent&#45;&gt;AppModule</title>
<path fill="none" stroke="#000000" d="M227,-122.2228C227,-142.3652 227,-172 227,-172 227,-172 466.3068,-172 466.3068,-172"/>
<polygon fill="#000000" stroke="#000000" points="466.3068,-175.5001 476.3068,-172 466.3068,-168.5001 466.3068,-175.5001"/>
</g>
<!-- SetupComponent -->
<g id="node4" class="node">
<title>SetupComponent</title>
<polygon fill="#ffffb3" stroke="#000000" points="137.7204,-122 24.2796,-122 24.2796,-86 137.7204,-86 137.7204,-122"/>
<text text-anchor="middle" x="81" y="-99.8" font-family="Times,serif" font-size="14.00" fill="#000000">SetupComponent</text>
</g>
<!-- SetupComponent&#45;&gt;AppModule -->
<g id="edge4" class="edge">
<title>SetupComponent&#45;&gt;AppModule</title>
<path fill="none" stroke="#000000" d="M81,-122.2479C81,-145.0179 81,-181 81,-181 81,-181 466.0986,-181 466.0986,-181"/>
<polygon fill="#000000" stroke="#000000" points="466.0986,-184.5001 476.0986,-181 466.0986,-177.5001 466.0986,-184.5001"/>
</g>
<!-- AppComponent  -->
<g id="node9" class="node">
<title>AppComponent </title>
<polygon fill="#80b1d3" stroke="#000000" points="572.439,-258 463.561,-258 463.561,-222 572.439,-222 572.439,-258"/>
<text text-anchor="middle" x="518" y="-235.8" font-family="Times,serif" font-size="14.00" fill="#000000">AppComponent </text>
</g>
<!-- AppModule&#45;&gt;AppComponent  -->
<g id="edge8" class="edge">
<title>AppModule&#45;&gt;AppComponent </title>
<path fill="none" stroke="#000000" stroke-dasharray="1,5" d="M518,-190.2228C518,-190.2228 518,-211.7269 518,-211.7269"/>
<polygon fill="#000000" stroke="#000000" points="514.5001,-211.7269 518,-221.7269 521.5001,-211.727 514.5001,-211.7269"/>
</g>
<!-- BrowserModule -->
<g id="node6" class="node">
<title>BrowserModule</title>
<polygon fill="#8dd3c7" stroke="#000000" points="815.4734,-122 812.4734,-126 791.4734,-126 788.4734,-122 708.5266,-122 708.5266,-86 815.4734,-86 815.4734,-122"/>
<text text-anchor="middle" x="762" y="-99.8" font-family="Times,serif" font-size="14.00" fill="#000000">BrowserModule</text>
</g>
<!-- BrowserModule&#45;&gt;AppModule -->
<g id="edge5" class="edge">
<title>BrowserModule&#45;&gt;AppModule</title>
<path fill="none" stroke="#000000" d="M762,-122.2228C762,-142.3652 762,-172 762,-172 762,-172 569.6679,-172 569.6679,-172"/>
<polygon fill="#000000" stroke="#000000" points="569.6679,-168.5001 559.6679,-172 569.6678,-175.5001 569.6679,-168.5001"/>
</g>
<!-- AppRoutingModule -->
<g id="node7" class="node">
<title>AppRoutingModule</title>
<polygon fill="#8dd3c7" stroke="#000000" points="962.2744,-122 959.2744,-126 938.2744,-126 935.2744,-122 833.7256,-122 833.7256,-86 962.2744,-86 962.2744,-122"/>
<text text-anchor="middle" x="898" y="-99.8" font-family="Times,serif" font-size="14.00" fill="#000000">AppRoutingModule</text>
</g>
<!-- AppRoutingModule&#45;&gt;AppModule -->
<g id="edge6" class="edge">
<title>AppRoutingModule&#45;&gt;AppModule</title>
<path fill="none" stroke="#000000" d="M898,-122.2479C898,-145.0179 898,-181 898,-181 898,-181 569.7537,-181 569.7537,-181"/>
<polygon fill="#000000" stroke="#000000" points="569.7537,-177.5001 559.7537,-181 569.7536,-184.5001 569.7537,-177.5001"/>
</g>
<!-- RouterModule  -->
<g id="node11" class="node">
<title>RouterModule </title>
<polygon fill="#fb8072" stroke="#000000" points="1103.6523,-190 1002.3477,-190 1002.3477,-154 1103.6523,-154 1103.6523,-190"/>
<text text-anchor="middle" x="1053" y="-167.8" font-family="Times,serif" font-size="14.00" fill="#000000">RouterModule </text>
</g>
<!-- AppRoutingModule&#45;&gt;RouterModule  -->
<g id="edge10" class="edge">
<title>AppRoutingModule&#45;&gt;RouterModule </title>
<path fill="none" stroke="#000000" stroke-dasharray="5,2" d="M962.3874,-110C1004.9734,-110 1053,-110 1053,-110 1053,-110 1053,-143.7333 1053,-143.7333"/>
<polygon fill="#000000" stroke="#000000" points="1049.5001,-143.7333 1053,-153.7333 1056.5001,-143.7333 1049.5001,-143.7333"/>
</g>
<!-- FormsModule -->
<g id="node8" class="node">
<title>FormsModule</title>
<polygon fill="#8dd3c7" stroke="#000000" points="690.8288,-122 687.8288,-126 666.8288,-126 663.8288,-122 595.1712,-122 595.1712,-86 690.8288,-86 690.8288,-122"/>
<text text-anchor="middle" x="643" y="-99.8" font-family="Times,serif" font-size="14.00" fill="#000000">FormsModule</text>
</g>
<!-- FormsModule&#45;&gt;AppModule -->
<g id="edge7" class="edge">
<title>FormsModule&#45;&gt;AppModule</title>
<path fill="none" stroke="#000000" d="M643,-122.0225C643,-139.3734 643,-163 643,-163 643,-163 569.9709,-163 569.9709,-163"/>
<polygon fill="#000000" stroke="#000000" points="569.971,-159.5001 559.9709,-163 569.9709,-166.5001 569.971,-159.5001"/>
</g>
<!-- RouterModule.forRoot(args) -->
<g id="node10" class="node">
<title>RouterModule.forRoot(args)</title>
<polygon fill="#8dd3c7" stroke="#000000" points="1305.8419,-190 1302.8419,-194 1281.8419,-194 1278.8419,-190 1128.1581,-190 1128.1581,-154 1305.8419,-154 1305.8419,-190"/>
<text text-anchor="middle" x="1217" y="-167.8" font-family="Times,serif" font-size="14.00" fill="#000000">RouterModule.forRoot(args)</text>
</g>
<!-- RouterModule.forRoot(args)&#45;&gt;AppRoutingModule -->
<g id="edge9" class="edge">
<title>RouterModule.forRoot(args)&#45;&gt;AppRoutingModule</title>
<path fill="none" stroke="#000000" d="M1217,-153.7079C1217,-131.7943 1217,-98 1217,-98 1217,-98 972.5544,-98 972.5544,-98"/>
<polygon fill="#000000" stroke="#000000" points="972.5544,-94.5001 962.5544,-98 972.5544,-101.5001 972.5544,-94.5001"/>
</g>
</g>
</svg>
